# AST/ASF file generated using VICON BodyLanguage
# -----------------------------------------------
:version 1.10
:name VICON
:units
  mass 1.0
  length 0.45
  angle deg
:documentation
   .ast/.asf automatically generated from VICON data using
   VICON BodyBuilder and BodyLanguage model FoxedUp or BRILLIANT.MOD
:root
   order TX TY TZ RX RY RZ
   axis XYZ
   position 0 0 0  
   orientation 0 0 0 
:bonedata
  begin
     id 1 
     name lhipjoint
     direction 0.62366 -0.717238 0.310833 
     length 2.53602 
     axis 0 0 0  XYZ
  end
  begin
     id 2 
     name lfemur
     direction 0.34202 -0.939693 0  
     length 7.40817  
     axis 0 0 20  XYZ
    dof rx ry rz
    limits (-160.0 20.0)
           (-70.0 70.0)
           (-60.0 70.0)
  end
  begin
     id 3 
     name ltibia
     direction 0.34202 -0.939693 0   
     length 7.7045   
     axis 0 0 20   XYZ
    dof rx
    limits (-10.0 170.0)
  end
  begin
     id 4 
     name lfoot
     direction 0.0673888 -0.185149 0.980397   
     length 2.09456   
     axis -90 7.62852e-016 20   XYZ
    dof rx rz
    limits (-45.0 90.0)
           (-70.0 20.0)
  end
  begin
     id 5 
     name ltoes
     direction 1.53575e-011 -4.21994e-011 1   
     length 1.05543   
     axis -90 7.62852e-016 20   XYZ
    dof rx
    limits (-90.0 20.0)
  end
  begin
     id 6 
     name rhipjoint
     direction -0.489018 -0.800347 0.346851   
     length 2.27268  
     axis 0 0 0  XYZ 
  end
  begin
     id 7 
     name rfemur
     direction -0.34202 -0.939693 0   
     length 7.55487   
     axis 0 0 -20   XYZ
    dof rx ry rz
    limits (-160.0 20.0)
           (-70.0 70.0)
           (-70.0 60.0)
  end
  begin
     id 8 
     name rtibia
     direction -0.34202 -0.939693 0   
     length 7.78969   
     axis 0 0 -20   XYZ
    dof rx
    limits (-10.0 170.0)
 end
 begin
     id 9 
     name rfoot
     direction -0.0859318 -0.236096 0.967923   
     length 2.19143  
     axis -90 -7.62852e-016 -20   XYZ
    dof rx rz
    limits (-45.0 90.0)
           (-20.0 70.0)
  end
  begin
     id 10 
     name rtoes
     direction -1.53538e-011 -4.21989e-011 1   
     length 1.09845   
     axis -90 -7.62852e-016 -20   XYZ
    dof rx
    limits (-90.0 20.0)
  end
  begin
     id 11 
     name lowerback
     direction -0.00762546 0.998978 -0.0445553   
     length 1.98161   
     axis 0 0 0   XYZ
    dof rx ry rz
    limits (-20.0 45.0)
           (-30.0 30.0)
           (-30.0 30.0)
  end
  begin
     id 12 
     name upperback
     direction 0.0422361 0.998867 -0.0219156   
     length 1.97558   
     axis 0 0 0   XYZ
    dof rx ry rz
    limits (-20.0 45.0)
           (-30.0 30.0)
           (-30.0 30.0)
  end
  begin
     id 13 
     name thorax
     direction 0.0442465 0.999021 7.47603e-005   
     length 1.97799   
     axis 0 0 0   XYZ
    dof rx ry rz
    limits (-20.0 45.0)
           (-30.0 30.0)
           (-30.0 30.0)
  end
  begin
     id 14 
     name lowerneck
     direction 0.00312169 0.984641 0.174564   
     length 1.78995   
     axis 0 0 0   XYZ
    dof rx ry rz
    limits (-20.0 45.0)
           (-30.0 30.0)
           (-30.0 30.0)
  end
  begin
     id 15 
     name upperneck
     direction -0.0383028 0.985255 -0.166749   
     length 1.83053   
     axis 0 0 0   XYZ
    dof rx ry rz
    limits (-20.0 45.0)
           (-30.0 30.0)
           (-30.0 30.0)
  end
  begin
     id 16
     name head
     direction -0.0129546 0.997059 -0.0755386  
     length 1.84088  
     axis 0 0 0   XYZ
    dof rx ry rz
    limits (-20.0 45.0)
           (-30.0 30.0)
           (-30.0 30.0)
  end
  begin
     id 17 
     name lclavicle
     direction 0.912857 0.370519 -0.171488  
     length 3.51279  
     axis 0 0 0   XYZ
    dof ry rz
    limits (-20.0 10.0)
           (0.0 20.0)
  end
  begin
     id 18 
     name lhumerus
     direction 1 -4.48962e-011 3.64361e-027   
     length 4.95663   
     axis 180 -30 -90   XYZ
    dof rx ry rz
    limits (-60.0 90.0)
           (-90.0 90.0)
           (-90.0 90.0)
  end
  begin
     id 19
     name lradius
     direction 1 -4.48974e-011 5.97202e-027   
     length 3.38177   
     axis 180 -30 -90   XYZ
    dof rx
    limits (-10.0 170.0)
  end
  begin
     id 20
     name lwrist
     direction 1 -4.4896e-011 9.83288e-027   
     length 1.69088   
     axis -9.31221e-015 90 90   XYZ
    dof ry
    limits (-180.0 0.0)
 end
  begin
     id 21 
     name lhand
     direction 1 -4.4902e-011 1.96551e-026   
     length 0.662909   
     axis -1.25475e-014 90 90   XYZ
    dof rx rz
    limits (-90.0 90.0)
           (-45.0 45.0)
  end
  begin
     id 22 
     name lfingers
     direction 1 -4.48971e-011 3.93277e-026   
     length 0.534454   
     axis -2.50945e-014 90 90   XYZ
    dof rx
    limits (0.0 90.0)
  end
  begin
     id 23
     name lthumb
     direction 0.707107 -6.34933e-011 0.707107   
     length 0.767373   
     axis -90 45 -4.80359e-014   XYZ
    dof rx rz
    limits (-45.0 45.0)
           (-45.0 45.0)
  end
  begin
     id 24 
     name rclavicle
     direction -0.900919 0.395364 -0.178976   
     length 3.40627  
     axis 0 0 0   XYZ 
    dof ry rz
    limits (-10.0 20.0)
           (-20.0 0.0)
  end
  begin
     id 25 
     name rhumerus
     direction -1 -4.48969e-011 1.03875e-027  
     length 5.08365   
     axis 180 30 90   XYZ
    dof rx ry rz
    limits (-90.0 60.0)
           (-90.0 90.0)
           (-90.0 90.0)
  end
  begin
     id 26 
     name rradius
     direction -1 -4.48951e-011 5.02733e-027   
     length 3.35984   
     axis 180 30 90   XYZ
    dof rx
    limits (-10.0 170.0)
  end
  begin
     id 27 
     name rwrist
     direction -1 -4.49011e-011 9.82828e-027   
     length 1.67992   
     axis -9.31221e-015 -90 -90   XYZ
    dof ry
    limits (-180.0 0.0)
  end
  begin
     id 28
     name rhand
     direction -1 -4.48894e-011 1.96774e-026   
     length 0.820764   
     axis -1.25475e-014 -90 -90   XYZ
    dof rx rz
    limits (-90.0 90.0)
           (-45.0 45.0)
  end
  begin
     id 29
     name rfingers
     direction -1 -4.49095e-011 3.92833e-026   
     length 0.661721   
     axis -2.50945e-014 -90 -90   XYZ
    dof rx
    limits (0.0 90.0)
  end
  begin
     id 30
     name rthumb
     direction -0.707107 -6.34881e-011 0.707107   
     length 0.950103   
     axis -90 -45 4.80359e-014   XYZ
    dof rx rz
    limits (-45.0 45.0)
           (-45.0 45.0)
  end
:hierarchy
  begin
    root lhipjoint rhipjoint lowerback
    lhipjoint lfemur
    lfemur ltibia
    ltibia lfoot
    lfoot ltoes
    rhipjoint rfemur
    rfemur rtibia
    rtibia rfoot
    rfoot rtoes
    lowerback upperback
    upperback thorax
    thorax lowerneck lclavicle rclavicle
    lowerneck upperneck
    upperneck head
    lclavicle lhumerus
    lhumerus lradius
    lradius lwrist
    lwrist lhand lthumb
    lhand lfingers
    rclavicle rhumerus
    rhumerus rradius
    rradius rwrist
    rwrist rhand rthumb
    rhand rfingers
  end

#!OML:ASF I:\golf\golf\golf 2\Subject 1\2002-09-07\Subject1.ASF
:FULLY-SPECIFIED
:DEGREES
1
root 0.585667 18.1259 -2.88173 9.13144 -3.08391 -0.665072
lowerback -7.3902 -0.646788 -7.10072
upperback -1.25059 -0.424771 3.78919
thorax 2.92723 -0.299471 7.97537
lowerneck -21.0386 0.0891653 -0.77375
upperneck 18.8901 1.23592 -3.70414
head 9.46364 0.0800783 -0.987159
rclavicle 3.72721e-015 -2.38542e-015
rhumerus -29.2734 -1.66981 -80.8721
rradius 27.0519
rwrist -10.8999
rhand -21.553 13.324
rfingers 7.12502
rthumb 4.84035 -16.6007
lclavicle 3.72721e-015 -2.38542e-015
lhumerus -29.0965 26.1638 79.567
lradius 21.236
lwrist -0.705278
lhand -8.80185 34.4288
lfingers 7.12502
lthumb 17.1372 63.693
rfemur -14.5469 -0.756426 21.4275
rtibia 26.743
rfoot -14.5738 -12.8324
rtoes 3.15635
lfemur -12.8079 2.60177 -20.8378
ltibia 21.6238
lfoot -13.4627 -1.66399
ltoes -5.94507
2
root 0.583147 18.1259 -2.88383 9.10833 -3.08992 -0.659782
lowerback -7.36138 -0.636295 -7.00874
upperback -1.24387 -0.417207 3.71395
thorax 2.91561 -0.294022 7.84078
lowerneck -20.9592 0.0747906 -0.686934
upperneck 18.9873 1.1911 -3.70705
head 9.48292 0.0646253 -1.00926
rclavicle 1.25731e-014 2.62396e-014
rhumerus -29.3448 -1.58998 -80.9891
rradius 27.0991
rwrist -11.0822
rhand -21.6158 13.0532
rfingers 7.12502
rthumb 4.77973 -16.8729
lclavicle 1.25731e-014 2.62396e-014
lhumerus -29.1265 26.1453 79.4196
lradius 21.1314
lwrist -0.764721
lhand -8.58433 34.3674
lfingers 7.12502
lthumb 17.3465 63.6133
rfemur -14.5459 -0.738541 21.4317
rtibia 26.7714
rfoot -14.548 -12.8623
rtoes 3.08311
lfemur -12.8 2.60178 -20.8316
ltibia 21.6607
lfoot -13.4847 -1.6584
ltoes -5.80109
3
root 0.580243 18.1254 -2.88459 9.10768 -3.10313 -0.59609
lowerback -7.38576 -0.644975 -7.027
upperback -1.20383 -0.423863 3.66375
thorax 2.97227 -0.301169 7.79683
lowerneck -20.9296 0.083096 -0.590349
upperneck 18.9932 1.18257 -3.75398
head 9.4802 0.0625455 -1.04265
rclavicle -5.51627e-015 7.95139e-016
rhumerus -29.3534 -1.53223 -81.0497
rradius 27.1565
rwrist -11.2364
rhand -21.6756 12.8683
rfingers 7.12502
rthumb 4.72203 -17.0591
lclavicle -5.51627e-015 7.95139e-016
lhumerus -29.0604 26.1357 79.3982
lradius 21.1007
lwrist -0.729362
lhand -8.42649 34.6869
lfingers 7.12502
lthumb 17.4984 63.9194
rfemur -14.5721 -0.764132 21.3685
rtibia 26.8008
rfoot -14.5323 -12.8269
rtoes 2.99492
lfemur -12.7886 2.60776 -20.8919
ltibia 21.6595
lfoot -13.4764 -1.67029
ltoes -5.60517
4
root 0.576457 18.1249 -2.8841 9.09547 -3.13194 -0.556136
lowerback -7.37252 -0.652292 -7.08153
upperback -1.15977 -0.429769 3.6645
thorax 3.01258 -0.308078 7.82906
lowerneck -20.9526 0.0949975 -0.562096
upperneck 18.943 1.20233 -3.81247
head 9.46777 0.0674825 -1.06455
rclavicle 9.93923e-015 -8.74653e-015
rhumerus -29.2956 -1.5055 -81.0338
rradius 27.1226
rwrist -11.2977
rhand -21.6886 12.9134
rfingers 7.12502
rthumb 4.70944 -17.0142
lclavicle 9.93923e-015 -8.74653e-015
lhumerus -29.0581 26.1692 79.4323
lradius 21.1666
lwrist -0.755626
lhand -8.4768 34.6101
lfingers 7.12502
lthumb 17.45 63.8469
rfemur -14.5752 -0.799345 21.3328
rtibia 26.8291
rfoot -14.5527 -12.78
rtoes 2.95055
lfemur -12.7817 2.67076 -20.9252
ltibia 21.6714
lfoot -13.4619 -1.73249
ltoes -5.35654
5
root 0.572667 18.125 -2.8844 9.10971 -3.16315 -0.592702
lowerback -7.3683 -0.658771 -7.09225
upperback -1.13651 -0.439449 3.71718
thorax 3.03697 -0.315311 7.8915
lowerneck -20.9168 0.110114 -0.574514
upperneck 18.8503 1.24013 -3.88634
head 9.43041 0.0772867 -1.08199
rclavicle 4.67144e-015 -1.43125e-014
rhumerus -29.2201 -1.45612 -80.9667
rradius 27.0252
rwrist -11.2929
rhand -21.685 13.0993
rfingers 7.12502
rthumb 4.71295 -16.8283
lclavicle 4.67144e-015 -1.43125e-014
lhumerus -29.1389 26.249 79.4856
lradius 21.2404
lwrist -0.835858
lhand -8.47505 34.038
lfingers 7.12502
lthumb 17.4517 63.2746
rfemur -14.6123 -0.768001 21.3838
rtibia 26.8765
rfoot -14.5751 -12.8023
rtoes 2.87394
lfemur -12.7877 2.70848 -20.8743
ltibia 21.6439
lfoot -13.4459 -1.74184
ltoes -5.40487
6
root 0.568839 18.1229 -2.88651 9.12472 -3.14257 -0.565568
lowerback -7.33291 -0.674747 -7.15252
upperback -1.13736 -0.459083 3.74222
thorax 3.0206 -0.325227 7.95161
lowerneck -20.8695 0.122567 -0.62431
upperneck 18.8481 1.26658 -3.86306
head 9.42133 0.0891709 -1.06179
rclavicle 8.05078e-015 -2.94201e-014
rhumerus -29.1956 -1.43587 -80.9011
rradius 26.9414
rwrist -11.2726
rhand -21.6241 13.1188
rfingers 7.12502
rthumb 4.77179 -16.8075
lclavicle 8.05078e-015 -2.94201e-014
lhumerus -29.1687 26.2436 79.5552
lradius 21.2147
lwrist -0.852918
lhand -8.42529 34.0282
lfingers 7.12502
lthumb 17.4996 63.2605
rfemur -14.6485 -0.783667 21.3741
rtibia 26.9134
rfoot -14.5906 -12.829
rtoes 2.76914
lfemur -12.8036 2.74709 -20.8945
ltibia 21.6097
lfoot -13.4387 -1.77027
ltoes -5.83796
7
root 0.565192 18.1203 -2.88876 9.08789 -3.10521 -0.429896
lowerback -7.24349 -0.698511 -7.31381
upperback -1.12345 -0.483414 3.73442
thorax 2.9909 -0.338326 8.03449
lowerneck -20.8474 0.135144 -0.67866
upperneck 18.8633 1.29485 -3.83561
head 9.42284 0.101497 -1.03938
rclavicle 2.93207e-015 1.03368e-014
rhumerus -29.169 -1.42078 -80.8348
rradius 26.8512
rwrist -11.2344
rhand -21.5267 13.0494
rfingers 7.12502
rthumb 4.8658 -16.8748
lclavicle 2.93207e-015 1.03368e-014
lhumerus -29.1496 26.1623 79.6509
lradius 21.1928
lwrist -0.784666
lhand -8.47233 34.2528
lfingers 7.12502
lthumb 17.4543 63.4892
rfemur -14.6276 -0.84047 21.2427
rtibia 26.9366
rfoot -14.6245 -12.8191
rtoes 2.73675
lfemur -12.7749 2.8032 -21.0309
ltibia 21.5889
lfoot -13.4582 -1.87367
ltoes -5.82914
8
root 0.562652 18.1225 -2.88913 9.1025 -3.11981 -0.40641
lowerback -7.25488 -0.696184 -7.34063
upperback -1.09859 -0.477278 3.73609
thorax 3.02243 -0.33792 8.0528
lowerneck -20.8362 0.141688 -0.627026
upperneck 18.8729 1.30915 -3.92711
head 9.42567 0.101204 -1.07774
rclavicle -4.62174e-015 3.97569e-015
rhumerus -29.1215 -1.44202 -80.7828
rradius 26.7524
rwrist -11.1797
rhand -21.4573 13.1318
rfingers 7.12502
rthumb 4.93281 -16.7908
lclavicle -4.62174e-015 3.97569e-015
lhumerus -29.1259 26.2552 79.6573
lradius 21.1617
lwrist -0.896516
lhand -8.47431 34.2314
lfingers 7.12502
lthumb 17.4524 63.4679
rfemur -14.6672 -0.81792 21.2204
rtibia 26.9653
rfoot -14.6552 -12.8174
rtoes 2.56058
lfemur -12.767 2.84296 -21.0472
ltibia 21.5571
lfoot -13.47 -1.93601
ltoes -5.18011
9
root 0.560164 18.125 -2.88835 9.16671 -3.14732 -0.47591
lowerback -7.29445 -0.67302 -7.22161
upperback -1.10112 -0.452501 3.7164
thorax 3.03615 -0.324551 7.96464
lowerneck -20.8727 0.136121 -0.529458
upperneck 18.9861 1.29098 -3.99141
head 9.47251 0.0902089 -1.11985
rclavicle -1.4064e-014 9.54166e-015
rhumerus -29.1174 -1.561 -80.7809
rradius 26.6611
rwrist -11.0573
rhand -21.4688 13.2293
rfingers 7.12502
rthumb 4.9217 -16.6936
lclavicle -1.4064e-014 9.54166e-015
lhumerus -29.1433 26.4345 79.5352
lradius 21.0942
lwrist -1.18504
lhand -8.39338 34.0948
lfingers 7.12502
lthumb 17.5303 63.3244
rfemur -14.7407 -0.799567 21.3012
rtibia 26.9746
rfoot -14.6493 -12.8189
rtoes 2.32499
lfemur -12.8014 2.75907 -20.9638
ltibia 21.5335
lfoot -13.4722 -1.84133
ltoes -4.96924
10
root 0.556903 18.1239 -2.8879 9.19214 -3.1703 -0.446284
lowerback -7.25916 -0.655517 -7.22039
upperback -1.133 -0.430677 3.68543
thorax 2.97844 -0.309638 7.93214
lowerneck -20.8503 0.135039 -0.559172
upperneck 19.1121 1.28711 -3.92187
head 9.5118 0.0925876 -1.09228
rclavicle 4.02539e-015 -5.56597e-015
rhumerus -29.1962 -1.64816 -80.7579
rradius 26.5961
rwrist -10.9273
rhand -21.5171 13.2883
rfingers 7.12502
rthumb 4.8751 -16.6356
lclavicle 4.02539e-015 -5.56597e-015
lhumerus -29.2186 26.4232 79.4913
lradius 21.0523
lwrist -1.34047
lhand -8.40098 34.0253
lfingers 7.12502
lthumb 17.523 63.2555
rfemur -14.7548 -0.786479 21.2774
rtibia 26.9477
rfoot -14.6596 -12.7774
rtoes 2.69069
lfemur -12.8256 2.54609 -20.9827
ltibia 21.5504
lfoot -13.4619 -1.62735
ltoes -5.27719
